# xmcd
#
# Track frame offsets: 
#        150
#        14898
#        28651
#        43114
#        60170
#        75684
#        92101
#        103977
#        118319
#        129015
#        144885
#        155540
#        167116
#        181271
#
# Disc length: 2635 seconds
#
# Revision: 4
# Processed by: cddbd v1.5.2PL0 Copyright (c) Steve Scherf et al.
# Submitted via: ExactAudioCopy v1.1
#
DISCID=b70a490e
DTITLE=Steve Miller - Bingo!
DYEAR=2010
DGENRE=Rock
TTITLE0=Hey yeah
TTITLE1=Who's been talkin'?
TTITLE2=Don't cha know
TTITLE3=Steve Miller - Joe Satriani - Rock me baby
TTITLE4=Tramp
TTITLE5=Steve Miller - Joe Satriani - Sweet soul vibe
TTITLE6=Come on (Let the good times roll)
TTITLE7=All your love (I miss loving)
TTITLE8=You got me dizzy
TTITLE9=Ooh poo pah doo
TTITLE10=Ain't that lovin' you, baby?
TTITLE11=Furtner on up the road
TTITLE12=Look on yonder wall
TTITLE13=Drivin' wheel
EXTD=YEAR: 2010
EXTT0=
EXTT1=
EXTT2=
EXTT3=
EXTT4=
EXTT5=
EXTT6=
EXTT7=
EXTT8=
EXTT9=
EXTT10=
EXTT11=
EXTT12=
EXTT13=
PLAYORDER=
